<svg xmlns="http://www.w3.org/2000/svg" xmlns:xlink="http://www.w3.org/1999/xlink" width="44.461" height="51.577" viewBox="0 0 44.461 51.577"><defs><clipPath id="a"><rect width="44.461" height="51.577" fill="none"/></clipPath></defs><g clip-path="url(#a)"><g transform="translate(-417.587 -954.885)"><path d="M457.214,955.885H422.419a4.843,4.843,0,0,0-4.832,4.833V988.56a11.183,11.183,0,0,0,2.406,6.423,6.262,6.262,0,0,0,.5.577l9,9a6.288,6.288,0,0,0,.583.5,11.2,11.2,0,0,0,6.418,2.4h20.724a4.841,4.841,0,0,0,4.832-4.833l0-41.911A4.844,4.844,0,0,0,457.214,955.885Zm-25.559,46.743a2.219,2.219,0,0,1-.037.476,2.478,2.478,0,0,1-.359-.308l-9-9a2.911,2.911,0,0,1-.313-.363,2.826,2.826,0,0,1,.478-.037h6.9a2.356,2.356,0,0,1,2.334,2.333Zm27.892,0a2.355,2.355,0,0,1-2.333,2.334l-20.724,0v0a7.34,7.34,0,0,1-2.665-.607,4.172,4.172,0,0,0,.331-1.728v-6.9a4.841,4.841,0,0,0-4.833-4.832h-6.9a4.168,4.168,0,0,0-1.729.332,7.34,7.34,0,0,1-.606-2.665V960.718a2.352,2.352,0,0,1,2.332-2.332h34.795a2.353,2.353,0,0,1,2.333,2.332Zm-15.589-32.107h6.492v-2.5h-6.492Zm0,8.79h6.492v-2.5h-6.492Z" transform="translate(0 -1)" fill="#fff"/></g></g></svg>