<svg width="195" height="30" viewBox="0 0 195 30" fill="none" xmlns="http://www.w3.org/2000/svg"><path d="M102.065 5.54745c-1.284 0-1.82.45756-2.0833 1.65273L96.8875 26.3058h6.6975l3.608-20.75835h-5.128zM23.8312 5.53607h-5.8439c-.9007 0-1.4091.28576-2.0078.84456L9.29758 12.8824l1.61552-7.34633H5.61782c-1.26311 0-1.78203.45186-2.03799 1.61899L0 26.309h6.64163l1.82848-9.0219 6.18629 9.0219h8.2742l-8.2374-11.7374 9.138-9.03553zM114.761 21.4397l2.732-15.89225h-5.125c-1.264 0-1.803.4374-2.073 1.58436l-3.104 19.17399h16.37l.625-4.8661h-9.425z" fill="#fff"/><path d="M36.2461.0548018C29.4017.638861 24.0356 5.69462 22.758 12.0828c3.6504-3.26711 10.6408-4.43523 21.3182-.7666 2.4092.8213 4.6177 1.6974 6.6437 2.61 1.8434.8213 3.7234 1.8069 5.6763 2.9386 4.0337 2.3179 8.5419 5.5485 12.174 9.4362h10.002l7.0088-14.273 2.6647 14.273h7.1L90.9835 5.54861h-6.5524c-1.0221 0-1.4602.29203-1.9164 1.0221L73.9363 23.5449l-5.9136-5.3478c2.683-.7483 5.6763-2.8107 6.4976-6.2786 1.4967-6.13262-3.6869-6.38814-5.4208-6.38814h-9.5092c-1.2411 0-1.4602.27377-1.7157 1.38714l-1.8252 8.6149c-4.6725-3.0481-15.2768-9.21721-22.7418-9.30847-1.8617-.01826-3.2489.25552-4.563 1.07686-.2008.12776-.2555.10951-.292.09126l.1095-.20077c.8031-.9856 2.4457-2.57352 5.2018-3.4131 0 0 4.3987-1.53316 10.3123 2.04421 3.4313 2.08071 5.7493 3.83289 7.9943 5.69461C50.4643 4.87329 44.5325.00004585 37.542.00004585c-.4198 0-.8578.01825225-1.2959.05475595zM64.3358 8.74268h2.464s2.4822-.14601 1.5879 3.17582c0 0-.9674 3.9607-5.5303 3.9607.2007-1.0039 1.3324-6.4247 1.4784-7.13652z" fill="#fff"/><path d="M28.2295 13.9938s-3.4332 1.5985-3.6694 5.504c-.2179 3.8147 2.6703 6.4486 2.6703 6.4486l.0182.0182c3.0153 2.8156 7.157 4.3596 11.5892 3.9781 6.8119-.5813 12.0797-5.6856 13.3513-12.0434.5086.1272 1.5985.436 3.1425.9446l-1.5803 7.4658h6.9753s.5631-2.9427 1.1081-5.2678c-3.96-2.3978-8.1743-4.0508-8.1743-4.0508-7.4839-3.1971-13.66-4.4141-18.2739-4.4141-3.1244 0-5.5403.5631-7.157 1.4168zM140.458 14.9067h-.996c.166.2607.291.5452.374.8533.083.2963.124.6044.124.9244 0 .5571-.095 1.0726-.284 1.5467-.19.4622-.457.8593-.8 1.1911-.356.3437-.771.6104-1.245.8-.462.1778-.972.2667-1.529.2667-.569 0-1.09-.0889-1.564-.2667-.462-.1896-.865-.4563-1.209-.8-.344-.3318-.61-.7289-.8-1.1911-.19-.4741-.285-.9896-.285-1.5467 0-.32.042-.6281.125-.9244.095-.3081.219-.5926.373-.8533h-.995v-1.92h3.289v-1.3689h2.133v1.3689h3.289v1.92zm-4.356-.1067c-.521 0-.936.1719-1.244.5156-.308.3318-.462.7881-.462 1.3688 0 .5808.154 1.043.462 1.3867.308.3319.723.4978 1.244.4978.51 0 .919-.1659 1.227-.4978.32-.3437.48-.8059.48-1.3867 0-.5807-.16-1.037-.48-1.3688-.308-.3437-.717-.5156-1.227-.5156zm8.285 11.6089h-9.849c-.486 0-.889-.16-1.209-.48-.308-.3319-.462-.723-.462-1.1733v-3.7689h2.151v3.2177c0 .0949.018.166.053.2134.036.0474.101.0711.196.0711h6.969l.017-11.9467h2.134v2.6845h2.257v1.92h-2.257v9.2622zM159 17.2356v-2.4889c0-.083-.024-.1482-.071-.1956-.036-.0592-.095-.0889-.178-.0889h-10.098v-1.92h10.827c.474 0 .871.1659 1.191.4978.32.3319.48.717.48 1.1556v3.04h.729v1.92h-5.902v2.4177h3.502c.474 0 .871.166 1.191.4978.32.3319.48.717.48 1.1556v3.1822H159v-2.6133c0-.0949-.024-.166-.071-.2134-.036-.0592-.095-.0889-.178-.0889h-10.098v-1.92h5.174v-2.4177h-5.707v-1.92H159zm17.956 1.6177h-2.152v-2.1866h-2.133v-1.92h2.133v-2.2045h2.152v6.3111zm-10.649 7.5556c-.522 0-.931-.1659-1.227-.4978-.296-.3318-.444-.7289-.444-1.1911v-2.7378h10.168v-.7289h-10.168v-1.8311h11.182c.355 0 .634.1067.835.32.202.2015.303.4741.303.8178v3.1289h-10.187v.8h10.329v1.92h-10.791zm2.88-11.5378c.083.5808.367 1.0489.853 1.4045.486.3437 1.156.5629 2.009.6577v1.92c-.96 0-1.772-.16-2.436-.48-.663-.3318-1.191-.7407-1.582-1.2266-.415.4859-.954.8948-1.618 1.2266-.652.32-1.457.48-2.417.48v-1.92c.853-.0948 1.523-.314 2.008-.6577.486-.3556.771-.8237.854-1.4045h-2.809v-1.92h2.88v-1.3333h2.187v1.3333h2.88v1.92h-2.809zm11.662 3.8222v-4.4977c0-.4386.154-.8237.462-1.1556.32-.3319.717-.4978 1.191-.4978h10.667v1.92h-9.92c-.107 0-.178.0297-.213.0889-.036.0474-.054.1126-.054.1956v3.3955c0 .0948.018.1659.054.2134.035.0474.106.0711.213.0711h9.92v1.92h-5.102V23.6h5.777v1.92h-13.688V23.6h5.777v-3.2533h-3.431c-.474 0-.871-.16-1.191-.48-.308-.3319-.462-.723-.462-1.1734z" fill="#fff"/></svg>